<?xml version="1.0" encoding="UTF-8"?>
<svg xmlns="http://www.w3.org/2000/svg" width="512" height="512" viewBox="0 0 512 512">
 <defs>
  <marker id="arrowhead" markerWidth="10" markerHeight="7" refX="9" refY="3.5" orient="auto">
    <polygon points="0 0, 10 3.5, 0 7" fill="#ff2d78"/>
  </marker>
 </defs>
 <rect width="512" height="512" fill="#ffffff"/>
 <g fill="#0a0a14" stroke="none">
  <!-- head -->
  <ellipse cx="228" cy="146" rx="28" ry="32"/>
  <!-- torso -->
  <path d="M 222 166 Q 232 246 240 260 L 272 260 Q 232 246 242 166 Z"/>
  <!-- thigh left -->
  <path d="M 242 260 L 228 276 L 244 284 L 262 264 Z"/>
  <!-- thigh right -->
  <path d="M 264 260 L 268 284 L 284 276 L 274 258 Z"/>
  <!-- shin left -->
  <path d="M 226 284 L 228 322 L 250 324 L 246 286 Z"/>
  <!-- shin right -->
  <path d="M 284 286 L 262 324 L 284 322 L 288 284 Z"/>
  <path d="M 240 180 L 268 196 L 242 210 L 236 194 Z"/>
 <path d="M 222 182 L 188 194 L 216 212 L 212 188 Z"/>
 <path d="M 316 236 L 416 236 L 392 212 M 416 236 L 392 260" stroke="#00b4ff" stroke-width="18" stroke-linecap="round" stroke-linejoin="round" fill="none" marker-end="url(#arrowhead)"/>
 <path d="M 196 236 L 96 236 L 120 212 M 96 236 L 120 260" stroke="#ff2d78" stroke-width="18" stroke-linecap="round" stroke-linejoin="round" fill="none" marker-end="url(#arrowhead)"/>
 <circle cx="238" cy="184" r="12" fill="#ff2d78" opacity="0.9"/> <circle cx="228" cy="186" r="12" fill="#00a2ff" opacity="0.9"/> <circle cx="256" cy="258" r="14" fill="#ff2d78" opacity="0.95"/> </g>
</svg>
