<?xml version="1.0" encoding="UTF-8"?>
<svg xmlns="http://www.w3.org/2000/svg" width="512" height="512" viewBox="0 0 512 512">
 <defs>
  <marker id="arrowhead" markerWidth="10" markerHeight="7" refX="9" refY="3.5" orient="auto">
    <polygon points="0 0, 10 3.5, 0 7" fill="#ff2d78"/>
  </marker>
 </defs>
 <rect width="512" height="512" fill="#ffffff"/>
 <g fill="#0a0a14" stroke="none">
  <!-- head -->
  <ellipse cx="228" cy="146" rx="28" ry="32"/>
  <!-- torso -->
  <path d="M 222 166 Q 232 246 240 260 L 272 260 Q 232 246 242 166 Z"/>
  <!-- thigh left -->
  <path d="M 242 260 L 228 276 L 244 284 L 262 264 Z"/>
  <!-- thigh right -->
  <path d="M 264 260 L 268 284 L 284 276 L 274 258 Z"/>
  <!-- shin left -->
  <path d="M 226 284 L 228 322 L 250 324 L 246 286 Z"/>
  <!-- shin right -->
  <path d="M 284 286 L 262 324 L 284 322 L 288 284 Z"/>
  <path d="M 242 260 L 206 294 L 224 302 L 264 260 Z"/>
 <path d="M 268 258 L 306 294 L 288 302 L 276 254 Z"/>
 <!-- elbow back right arm -->
 <path d="M 240 180 L 286 180 L 316 214 L 270 190 Z"/>
 <path d="M 222 182 L 176 176 L 148 206 L 190 184 Z"/>
 <path d="M 116 212 L 206 212 L 182 188 M 206 212 L 182 236" stroke="#00b4ff" stroke-width="18" stroke-linecap="round" stroke-linejoin="round" fill="none" marker-end="url(#arrowhead)"/>
 <circle cx="238" cy="184" r="12" fill="#ff2d78" opacity="0.9"/> <circle cx="228" cy="186" r="12" fill="#00a2ff" opacity="0.9"/> <circle cx="256" cy="258" r="14" fill="#ff2d78" opacity="0.95"/> </g>
</svg>
